<svg width="502" height="94" viewBox="0 0 502 94" fill="none" xmlns="http://www.w3.org/2000/svg">
<rect width="501.742" height="94" fill="#2A2A2A"/>
<path d="M192.978 36.1704H195.123C196.57 36.1704 197.717 36.528 198.563 37.2432C199.478 38.0091 199.935 39.1263 199.935 40.5947C199.935 42.0632 199.49 43.1782 198.602 43.9399C197.772 44.6466 196.634 45 195.187 45H192.978V36.1704ZM198.633 40.6011C198.633 38.3286 197.436 37.1924 195.041 37.1924H194.247V43.9844H195.11C196.938 43.9844 198.051 43.3242 198.449 42.0039C198.572 41.585 198.633 41.1174 198.633 40.6011ZM201.229 41.7119C201.229 40.6836 201.557 39.8499 202.213 39.2109C202.827 38.6143 203.587 38.3159 204.492 38.3159C205.381 38.3159 206.124 38.6143 206.72 39.2109C207.355 39.8457 207.672 40.6794 207.672 41.7119C207.672 42.7402 207.353 43.5697 206.714 44.2002C206.109 44.8011 205.366 45.1016 204.486 45.1016C203.593 45.1016 202.835 44.8011 202.213 44.2002C201.557 43.5697 201.229 42.7402 201.229 41.7119ZM202.55 41.7119C202.55 42.7952 202.897 43.5316 203.591 43.9209C203.836 44.0563 204.13 44.124 204.473 44.124C204.816 44.124 205.106 44.0563 205.343 43.9209C205.58 43.7812 205.774 43.5993 205.927 43.375C206.21 42.9434 206.352 42.389 206.352 41.7119C206.352 40.637 206.011 39.9007 205.33 39.5029C205.093 39.3633 204.81 39.2935 204.479 39.2935C204.149 39.2935 203.862 39.3633 203.616 39.5029C203.375 39.6383 203.176 39.8182 203.02 40.0425C202.706 40.4826 202.55 41.0391 202.55 41.7119ZM213.29 46.625C213.404 46.6589 213.559 46.6758 213.753 46.6758C213.952 46.6758 214.155 46.6356 214.363 46.5552C214.57 46.479 214.75 46.3711 214.902 46.2314C215.156 46.0029 215.387 45.6432 215.594 45.1523L212.903 38.4492H214.255L216.146 43.667L217.841 38.4492H219.181L216.489 45.8062C216.286 46.3563 216.005 46.7773 215.645 47.0693C215.171 47.4502 214.538 47.6406 213.747 47.6406C213.675 47.6406 213.601 47.6364 213.525 47.6279L213.29 47.6025V46.625ZM219.65 41.7119C219.65 40.6836 219.978 39.8499 220.634 39.2109C221.248 38.6143 222.007 38.3159 222.913 38.3159C223.802 38.3159 224.544 38.6143 225.141 39.2109C225.776 39.8457 226.093 40.6794 226.093 41.7119C226.093 42.7402 225.774 43.5697 225.135 44.2002C224.53 44.8011 223.787 45.1016 222.907 45.1016C222.014 45.1016 221.256 44.8011 220.634 44.2002C219.978 43.5697 219.65 42.7402 219.65 41.7119ZM220.971 41.7119C220.971 42.7952 221.318 43.5316 222.012 43.9209C222.257 44.0563 222.551 44.124 222.894 44.124C223.237 44.124 223.527 44.0563 223.764 43.9209C224.001 43.7812 224.195 43.5993 224.348 43.375C224.631 42.9434 224.773 42.389 224.773 41.7119C224.773 40.637 224.432 39.9007 223.751 39.5029C223.514 39.3633 223.23 39.2935 222.9 39.2935C222.57 39.2935 222.283 39.3633 222.037 39.5029C221.796 39.6383 221.597 39.8182 221.44 40.0425C221.127 40.4826 220.971 41.0391 220.971 41.7119ZM231.927 43.394V38.4492H233.196V45H232.054L231.939 44.3081C231.313 44.8371 230.621 45.1016 229.864 45.1016C229.06 45.1016 228.491 44.8794 228.156 44.4351C227.809 43.9823 227.636 43.2015 227.636 42.0928V38.4492H228.905V42.0293C228.905 42.8122 229.017 43.3454 229.242 43.6289C229.441 43.8828 229.819 44.0098 230.378 44.0098C230.941 44.0098 231.457 43.8045 231.927 43.394ZM242.521 39.4395C241.895 39.4395 241.336 39.6532 240.845 40.0806V45H239.576V35.5547H240.845V39.1538C241.531 38.6164 242.24 38.3477 242.972 38.3477C243.755 38.3477 244.328 38.5804 244.692 39.0459C245.073 39.5368 245.263 40.3281 245.263 41.4199V45H243.994V41.4199C243.994 40.3704 243.708 39.7441 243.137 39.541C242.955 39.4733 242.75 39.4395 242.521 39.4395ZM247.447 43.832C247.307 43.5908 247.195 43.3073 247.11 42.9814C247.03 42.6556 246.99 42.2303 246.99 41.7056C246.99 41.1808 247.102 40.6984 247.326 40.2583C247.555 39.814 247.851 39.45 248.215 39.1665C248.922 38.6206 249.8 38.3477 250.849 38.3477C251.395 38.3477 251.808 38.3604 252.087 38.3857C252.087 38.3857 252.292 38.4069 252.703 38.4492V45H251.56L251.509 44.2446C251.255 44.5832 250.868 44.835 250.348 45C250.149 45.0635 249.944 45.0952 249.732 45.0952C249.525 45.0952 249.319 45.0741 249.116 45.0317C248.913 44.9894 248.71 44.9196 248.507 44.8223C248.308 44.7249 248.118 44.5959 247.936 44.4351C247.754 44.27 247.591 44.069 247.447 43.832ZM251.433 39.3823C251.162 39.3485 250.891 39.3315 250.621 39.3315C250.354 39.3315 250.068 39.3802 249.764 39.4775C249.459 39.5706 249.199 39.7188 248.983 39.9219C248.534 40.3451 248.31 40.9904 248.31 41.8579C248.31 42.6789 248.503 43.2861 248.888 43.6797C249.18 43.9717 249.531 44.1177 249.941 44.1177C250.47 44.1177 250.906 43.9251 251.249 43.54C251.334 43.4427 251.395 43.356 251.433 43.2798V39.3823ZM253.839 38.4492H255.204L256.987 43.7622L258.777 38.4492H260.136L257.628 45H256.353L253.839 38.4492ZM264.281 45.1016C261.886 45.1016 260.688 43.9315 260.688 41.5913C260.688 40.5841 261.02 39.778 261.685 39.1729C262.281 38.6227 262.963 38.3477 263.729 38.3477C264.562 38.3477 265.214 38.627 265.684 39.1855C266.119 39.7061 266.337 40.4022 266.337 41.2739V41.769H262.008C262.008 42.9666 262.497 43.6987 263.475 43.9653C263.707 44.0288 264.065 44.0605 264.547 44.0605C265.034 44.0605 265.51 43.995 265.976 43.8638V44.9365C265.51 45.0465 264.945 45.1016 264.281 45.1016ZM265.068 40.8359C265.068 40.4297 264.956 40.0869 264.731 39.8076C264.469 39.486 264.107 39.3252 263.646 39.3252C263.159 39.3252 262.764 39.4797 262.459 39.7886C262.18 40.0763 262.04 40.4255 262.04 40.8359H265.068ZM272.355 43.832C272.215 43.5908 272.103 43.3073 272.019 42.9814C271.938 42.6556 271.898 42.2303 271.898 41.7056C271.898 41.1808 272.01 40.6984 272.234 40.2583C272.463 39.814 272.759 39.45 273.123 39.1665C273.83 38.6206 274.708 38.3477 275.757 38.3477C276.303 38.3477 276.716 38.3604 276.995 38.3857C276.995 38.3857 277.2 38.4069 277.611 38.4492V45H276.468L276.417 44.2446C276.164 44.5832 275.776 44.835 275.256 45C275.057 45.0635 274.852 45.0952 274.64 45.0952C274.433 45.0952 274.228 45.0741 274.024 45.0317C273.821 44.9894 273.618 44.9196 273.415 44.8223C273.216 44.7249 273.026 44.5959 272.844 44.4351C272.662 44.27 272.499 44.069 272.355 43.832ZM276.341 39.3823C276.07 39.3485 275.8 39.3315 275.529 39.3315C275.262 39.3315 274.977 39.3802 274.672 39.4775C274.367 39.5706 274.107 39.7188 273.891 39.9219C273.443 40.3451 273.218 40.9904 273.218 41.8579C273.218 42.6789 273.411 43.2861 273.796 43.6797C274.088 43.9717 274.439 44.1177 274.85 44.1177C275.379 44.1177 275.814 43.9251 276.157 43.54C276.242 43.4427 276.303 43.356 276.341 43.2798V39.3823ZM285.45 36.5386C285.45 36.7798 285.37 36.966 285.209 37.0972C285.052 37.2241 284.856 37.2876 284.619 37.2876C284.382 37.2876 284.185 37.2241 284.028 37.0972C283.876 36.966 283.8 36.7798 283.8 36.5386C283.8 36.2931 283.876 36.1069 284.028 35.98C284.185 35.853 284.382 35.7896 284.619 35.7896C284.856 35.7896 285.052 35.853 285.209 35.98C285.37 36.1069 285.45 36.2931 285.45 36.5386ZM283.978 38.4492H285.247V45.127C285.247 46.2738 284.887 47.0376 284.168 47.4185C283.884 47.5666 283.518 47.6406 283.07 47.6406C282.998 47.6406 282.924 47.6364 282.848 47.6279L282.613 47.6025V46.625C282.727 46.6589 282.856 46.6758 283 46.6758C283.144 46.6758 283.279 46.6504 283.406 46.5996C283.537 46.5488 283.645 46.4642 283.73 46.3457C283.895 46.1087 283.978 45.7004 283.978 45.1206V38.4492ZM286.796 41.7119C286.796 40.6836 287.124 39.8499 287.78 39.2109C288.393 38.6143 289.153 38.3159 290.059 38.3159C290.947 38.3159 291.69 38.6143 292.287 39.2109C292.921 39.8457 293.239 40.6794 293.239 41.7119C293.239 42.7402 292.919 43.5697 292.28 44.2002C291.675 44.8011 290.932 45.1016 290.052 45.1016C289.159 45.1016 288.402 44.8011 287.78 44.2002C287.124 43.5697 286.796 42.7402 286.796 41.7119ZM288.116 41.7119C288.116 42.7952 288.463 43.5316 289.157 43.9209C289.403 44.0563 289.697 44.124 290.04 44.124C290.382 44.124 290.672 44.0563 290.909 43.9209C291.146 43.7812 291.341 43.5993 291.493 43.375C291.777 42.9434 291.918 42.389 291.918 41.7119C291.918 40.637 291.578 39.9007 290.896 39.5029C290.66 39.3633 290.376 39.2935 290.046 39.2935C289.716 39.2935 289.428 39.3633 289.183 39.5029C288.941 39.6383 288.743 39.8182 288.586 40.0425C288.273 40.4826 288.116 41.0391 288.116 41.7119ZM299.383 44.27C299.019 44.5535 298.607 44.763 298.146 44.8984C297.688 45.0296 297.193 45.0952 296.66 45.0952C296.131 45.0952 295.539 45.0635 294.883 45V35.5547H296.152V39.103C296.432 38.7856 296.819 38.5592 297.314 38.4238C297.5 38.373 297.691 38.3477 297.885 38.3477C298.084 38.3477 298.285 38.3688 298.488 38.4111C298.691 38.4492 298.892 38.5169 299.091 38.6143C299.294 38.7116 299.487 38.8407 299.669 39.0015C299.851 39.1623 300.012 39.3633 300.151 39.6045C300.46 40.1208 300.615 40.7344 300.615 41.4453C300.615 42.152 300.5 42.7275 300.272 43.1719C300.048 43.6162 299.751 43.9823 299.383 44.27ZM296.159 44.0669C296.277 44.1007 296.51 44.1177 296.857 44.1177C297.204 44.1177 297.53 44.069 297.834 43.9717C298.139 43.8743 298.399 43.722 298.615 43.5146C299.068 43.0788 299.294 42.4292 299.294 41.5659C299.294 40.5122 298.988 39.8224 298.374 39.4966C298.154 39.3823 297.93 39.3252 297.701 39.3252C297.473 39.3252 297.274 39.3548 297.104 39.4141C296.935 39.4733 296.787 39.5452 296.66 39.6299C296.419 39.7949 296.252 39.9727 296.159 40.1631V44.0669ZM304.176 41.0708C305.314 41.0708 305.883 40.582 305.883 39.6045C305.883 38.5677 305.289 37.8779 304.1 37.5352C303.617 37.3913 303.071 37.3151 302.462 37.3066V36.1133C303.968 36.1133 305.149 36.4666 306.004 37.1733C306.77 37.8123 307.153 38.6227 307.153 39.6045C307.153 40.6074 306.723 41.3268 305.864 41.7627C305.534 41.932 305.117 42.0293 304.614 42.0547V42.8354H303.535V41.0454C303.704 41.0623 303.918 41.0708 304.176 41.0708ZM303.243 44.3906C303.243 44.1452 303.321 43.9569 303.478 43.8257C303.634 43.6945 303.833 43.6289 304.074 43.6289C304.315 43.6289 304.516 43.6945 304.677 43.8257C304.838 43.9569 304.918 44.1452 304.918 44.3906C304.918 44.6361 304.838 44.8244 304.677 44.9556C304.516 45.0868 304.315 45.1523 304.074 45.1523C303.833 45.1523 303.634 45.0868 303.478 44.9556C303.321 44.8244 303.243 44.6361 303.243 44.3906ZM199.604 60.9111C199.118 61.0381 198.475 61.1016 197.675 61.1016C196.879 61.1016 196.196 61.0021 195.625 60.8032C195.057 60.6043 194.569 60.3102 194.158 59.9209C193.278 59.0999 192.838 57.9574 192.838 56.4932C192.838 55.5368 193.066 54.7116 193.523 54.0176C194.141 53.0739 195.091 52.473 196.374 52.2148C196.767 52.1387 197.25 52.1006 197.821 52.1006C198.392 52.1006 198.885 52.1281 199.3 52.1831V53.4019C198.936 53.3088 198.415 53.2622 197.738 53.2622C197.065 53.2622 196.513 53.3384 196.082 53.4907C195.65 53.6431 195.292 53.861 195.009 54.1445C194.442 54.6989 194.158 55.4818 194.158 56.4932C194.158 57.5215 194.438 58.3446 194.996 58.9624C195.605 59.6353 196.475 59.9717 197.605 59.9717C197.867 59.9717 198.111 59.9611 198.335 59.9399V56.6836H199.604V60.9111ZM203.134 52.5449C203.134 52.7861 203.053 52.9723 202.893 53.1035C202.736 53.2305 202.539 53.2939 202.302 53.2939C202.065 53.2939 201.868 53.2305 201.712 53.1035C201.56 52.9723 201.483 52.7861 201.483 52.5449C201.483 52.2995 201.56 52.1133 201.712 51.9863C201.868 51.8594 202.065 51.7959 202.302 51.7959C202.539 51.7959 202.736 51.8594 202.893 51.9863C203.053 52.1133 203.134 52.2995 203.134 52.5449ZM201.648 54.4492H202.918V61H201.648V54.4492ZM204.022 54.4492H205.387L207.171 59.7622L208.961 54.4492H210.319L207.812 61H206.536L204.022 54.4492ZM214.464 61.1016C212.069 61.1016 210.872 59.9315 210.872 57.5913C210.872 56.5841 211.204 55.778 211.868 55.1729C212.465 54.6227 213.146 54.3477 213.912 54.3477C214.746 54.3477 215.397 54.627 215.867 55.1855C216.303 55.7061 216.521 56.4022 216.521 57.2739V57.769H212.192C212.192 58.9666 212.681 59.6987 213.658 59.9653C213.891 60.0288 214.249 60.0605 214.731 60.0605C215.218 60.0605 215.694 59.995 216.159 59.8638V60.9365C215.694 61.0465 215.129 61.1016 214.464 61.1016ZM215.251 56.8359C215.251 56.4297 215.139 56.0869 214.915 55.8076C214.653 55.486 214.291 55.3252 213.83 55.3252C213.343 55.3252 212.947 55.4797 212.643 55.7886C212.363 56.0763 212.224 56.4255 212.224 56.8359H215.251ZM223.542 56.0806L223.548 61H222.278V54.4492H223.446L223.535 55.1665C224.001 54.7772 224.542 54.5233 225.16 54.4048C225.359 54.3667 225.554 54.3477 225.744 54.3477C226.535 54.3477 227.132 54.682 227.534 55.3506C228.271 54.682 229.041 54.3477 229.845 54.3477C230.64 54.3477 231.22 54.5868 231.584 55.0649C231.948 55.5516 232.13 56.3556 232.13 57.4771V61H230.86V57.5215C230.86 56.4212 230.596 55.7632 230.067 55.5474C229.889 55.4754 229.682 55.4395 229.445 55.4395C228.878 55.4395 228.357 55.6426 227.883 56.0488V61H226.614V57.4707C226.614 56.7174 226.502 56.1885 226.277 55.8838C226.062 55.5876 225.674 55.4395 225.116 55.4395C224.561 55.4395 224.037 55.6532 223.542 56.0806ZM237.227 61.1016C234.832 61.1016 233.634 59.9315 233.634 57.5913C233.634 56.5841 233.966 55.778 234.631 55.1729C235.228 54.6227 235.909 54.3477 236.675 54.3477C237.508 54.3477 238.16 54.627 238.63 55.1855C239.066 55.7061 239.284 56.4022 239.284 57.2739V57.769H234.955C234.955 58.9666 235.443 59.6987 236.421 59.9653C236.654 60.0288 237.011 60.0605 237.494 60.0605C237.98 60.0605 238.456 59.995 238.922 59.8638V60.9365C238.456 61.0465 237.891 61.1016 237.227 61.1016ZM238.014 56.8359C238.014 56.4297 237.902 56.0869 237.678 55.8076C237.415 55.486 237.054 55.3252 236.592 55.3252C236.106 55.3252 235.71 55.4797 235.405 55.7886C235.126 56.0763 234.986 56.4255 234.986 56.8359H238.014ZM246.615 61.1016C246.086 61.1016 245.551 61.0635 245.009 60.9873V59.8638C245.559 59.995 246.118 60.0605 246.685 60.0605C247.819 60.0605 248.386 59.8215 248.386 59.3433C248.386 59.1613 248.342 59.0259 248.253 58.937C248.122 58.7974 247.914 58.6577 247.631 58.5181L246.704 58.0928C246.103 57.7923 245.714 57.5511 245.536 57.3691C245.202 57.0306 245.035 56.6286 245.035 56.1631C245.035 55.6383 245.278 55.2109 245.765 54.8809C246.289 54.5254 247.026 54.3477 247.974 54.3477C248.452 54.3477 248.934 54.3815 249.421 54.4492V55.5347C248.888 55.4373 248.422 55.3887 248.024 55.3887C247.631 55.3887 247.324 55.4141 247.104 55.4648C246.888 55.5156 246.725 55.5791 246.615 55.6553C246.442 55.7738 246.355 55.9282 246.355 56.1187C246.355 56.3049 246.414 56.4572 246.533 56.5757C246.655 56.6899 246.846 56.8148 247.104 56.9502L248.037 57.4009C248.646 57.7183 249.038 57.9616 249.211 58.1309C249.542 58.4525 249.707 58.8566 249.707 59.3433C249.707 59.8638 249.444 60.2827 248.919 60.6001C248.369 60.9344 247.601 61.1016 246.615 61.1016ZM251.084 57.7119C251.084 56.6836 251.412 55.8499 252.068 55.2109C252.681 54.6143 253.441 54.3159 254.347 54.3159C255.235 54.3159 255.978 54.6143 256.575 55.2109C257.209 55.8457 257.527 56.6794 257.527 57.7119C257.527 58.7402 257.207 59.5697 256.568 60.2002C255.963 60.8011 255.221 61.1016 254.34 61.1016C253.447 61.1016 252.69 60.8011 252.068 60.2002C251.412 59.5697 251.084 58.7402 251.084 57.7119ZM252.404 57.7119C252.404 58.7952 252.751 59.5316 253.445 59.9209C253.691 60.0563 253.985 60.124 254.328 60.124C254.67 60.124 254.96 60.0563 255.197 59.9209C255.434 59.7812 255.629 59.5993 255.781 59.375C256.065 58.9434 256.207 58.389 256.207 57.7119C256.207 56.637 255.866 55.9007 255.185 55.5029C254.948 55.3633 254.664 55.2935 254.334 55.2935C254.004 55.2935 253.716 55.3633 253.471 55.5029C253.229 55.6383 253.031 55.8182 252.874 56.0425C252.561 56.4826 252.404 57.0391 252.404 57.7119ZM260.383 56.0806L260.39 61H259.12V54.4492H260.288L260.377 55.1665C260.842 54.7772 261.384 54.5233 262.002 54.4048C262.201 54.3667 262.396 54.3477 262.586 54.3477C263.377 54.3477 263.974 54.682 264.376 55.3506C265.112 54.682 265.882 54.3477 266.687 54.3477C267.482 54.3477 268.062 54.5868 268.426 55.0649C268.79 55.5516 268.972 56.3556 268.972 57.4771V61H267.702V57.5215C267.702 56.4212 267.438 55.7632 266.909 55.5474C266.731 55.4754 266.524 55.4395 266.287 55.4395C265.72 55.4395 265.199 55.6426 264.725 56.0488V61H263.456V57.4707C263.456 56.7174 263.343 56.1885 263.119 55.8838C262.903 55.5876 262.516 55.4395 261.958 55.4395C261.403 55.4395 260.878 55.6532 260.383 56.0806ZM274.069 61.1016C271.674 61.1016 270.476 59.9315 270.476 57.5913C270.476 56.5841 270.808 55.778 271.473 55.1729C272.069 54.6227 272.751 54.3477 273.517 54.3477C274.35 54.3477 275.002 54.627 275.472 55.1855C275.908 55.7061 276.125 56.4022 276.125 57.2739V57.769H271.796C271.796 58.9666 272.285 59.6987 273.263 59.9653C273.495 60.0288 273.853 60.0605 274.335 60.0605C274.822 60.0605 275.298 59.995 275.764 59.8638V60.9365C275.298 61.0465 274.733 61.1016 274.069 61.1016ZM274.856 56.8359C274.856 56.4297 274.744 56.0869 274.52 55.8076C274.257 55.486 273.895 55.3252 273.434 55.3252C272.947 55.3252 272.552 55.4797 272.247 55.7886C271.968 56.0763 271.828 56.4255 271.828 56.8359H274.856ZM278.163 61.1587C277.909 61.1587 277.698 61.091 277.528 60.9556C277.363 60.8159 277.281 60.617 277.281 60.3589C277.281 60.0965 277.363 59.8955 277.528 59.7559C277.698 59.6162 277.909 59.5464 278.163 59.5464C278.421 59.5464 278.635 59.6162 278.804 59.7559C278.973 59.8955 279.058 60.0965 279.058 60.3589C279.058 60.617 278.973 60.8159 278.804 60.9556C278.635 61.091 278.421 61.1587 278.163 61.1587ZM281.413 61.1587C281.159 61.1587 280.948 61.091 280.778 60.9556C280.613 60.8159 280.531 60.617 280.531 60.3589C280.531 60.0965 280.613 59.8955 280.778 59.7559C280.948 59.6162 281.159 59.5464 281.413 59.5464C281.671 59.5464 281.885 59.6162 282.054 59.7559C282.223 59.8955 282.308 60.0965 282.308 60.3589C282.308 60.617 282.223 60.8159 282.054 60.9556C281.885 61.091 281.671 61.1587 281.413 61.1587ZM284.663 61.1587C284.409 61.1587 284.198 61.091 284.028 60.9556C283.863 60.8159 283.781 60.617 283.781 60.3589C283.781 60.0965 283.863 59.8955 284.028 59.7559C284.198 59.6162 284.409 59.5464 284.663 59.5464C284.921 59.5464 285.135 59.6162 285.304 59.7559C285.473 59.8955 285.558 60.0965 285.558 60.3589C285.558 60.617 285.473 60.8159 285.304 60.9556C285.135 61.091 284.921 61.1587 284.663 61.1587Z" fill="white"/>
</svg>
