<svg width="620" height="110" viewBox="0 0 620 110" fill="none" xmlns="http://www.w3.org/2000/svg">
<rect width="620" height="110" fill="#2A2A2A"/>
<path d="M146.902 26.8496H148.883C150.219 26.8496 151.277 27.1797 152.059 27.8398C152.902 28.5469 153.324 29.5781 153.324 30.9336C153.324 32.2891 152.914 33.3184 152.094 34.0215C151.328 34.6738 150.277 35 148.941 35H146.902V26.8496ZM152.123 30.9395C152.123 28.8418 151.018 27.793 148.807 27.793H148.074V34.0625H148.871C150.559 34.0625 151.586 33.4531 151.953 32.2344C152.066 31.8477 152.123 31.416 152.123 30.9395ZM154.52 31.9648C154.52 31.0156 154.822 30.2461 155.428 29.6562C155.994 29.1055 156.695 28.8301 157.531 28.8301C158.352 28.8301 159.037 29.1055 159.588 29.6562C160.174 30.2422 160.467 31.0117 160.467 31.9648C160.467 32.9141 160.172 33.6797 159.582 34.2617C159.023 34.8164 158.338 35.0938 157.525 35.0938C156.701 35.0938 156.002 34.8164 155.428 34.2617C154.822 33.6797 154.52 32.9141 154.52 31.9648ZM155.738 31.9648C155.738 32.9648 156.059 33.6445 156.699 34.0039C156.926 34.1289 157.197 34.1914 157.514 34.1914C157.83 34.1914 158.098 34.1289 158.316 34.0039C158.535 33.875 158.715 33.707 158.855 33.5C159.117 33.1016 159.248 32.5898 159.248 31.9648C159.248 30.9727 158.934 30.293 158.305 29.9258C158.086 29.7969 157.824 29.7324 157.52 29.7324C157.215 29.7324 156.949 29.7969 156.723 29.9258C156.5 30.0508 156.316 30.2168 156.172 30.4238C155.883 30.8301 155.738 31.3438 155.738 31.9648ZM165.652 36.5C165.758 36.5312 165.9 36.5469 166.08 36.5469C166.264 36.5469 166.451 36.5098 166.643 36.4355C166.834 36.3652 167 36.2656 167.141 36.1367C167.375 35.9258 167.588 35.5938 167.779 35.1406L165.295 28.9531H166.543L168.289 33.7695L169.854 28.9531H171.09L168.605 35.7441C168.418 36.252 168.158 36.6406 167.826 36.9102C167.389 37.2617 166.805 37.4375 166.074 37.4375C166.008 37.4375 165.939 37.4336 165.869 37.4258L165.652 37.4023V36.5ZM171.523 31.9648C171.523 31.0156 171.826 30.2461 172.432 29.6562C172.998 29.1055 173.699 28.8301 174.535 28.8301C175.355 28.8301 176.041 29.1055 176.592 29.6562C177.178 30.2422 177.471 31.0117 177.471 31.9648C177.471 32.9141 177.176 33.6797 176.586 34.2617C176.027 34.8164 175.342 35.0938 174.529 35.0938C173.705 35.0938 173.006 34.8164 172.432 34.2617C171.826 33.6797 171.523 32.9141 171.523 31.9648ZM172.742 31.9648C172.742 32.9648 173.062 33.6445 173.703 34.0039C173.93 34.1289 174.201 34.1914 174.518 34.1914C174.834 34.1914 175.102 34.1289 175.32 34.0039C175.539 33.875 175.719 33.707 175.859 33.5C176.121 33.1016 176.252 32.5898 176.252 31.9648C176.252 30.9727 175.938 30.293 175.309 29.9258C175.09 29.7969 174.828 29.7324 174.523 29.7324C174.219 29.7324 173.953 29.7969 173.727 29.9258C173.504 30.0508 173.32 30.2168 173.176 30.4238C172.887 30.8301 172.742 31.3438 172.742 31.9648ZM182.855 33.5176V28.9531H184.027V35H182.973L182.867 34.3613C182.289 34.8496 181.65 35.0938 180.951 35.0938C180.209 35.0938 179.684 34.8887 179.375 34.4785C179.055 34.0605 178.895 33.3398 178.895 32.3164V28.9531H180.066V32.2578C180.066 32.9805 180.17 33.4727 180.377 33.7344C180.561 33.9688 180.91 34.0859 181.426 34.0859C181.945 34.0859 182.422 33.8965 182.855 33.5176ZM192.635 29.8672C192.057 29.8672 191.541 30.0645 191.088 30.459V35H189.916V26.2812H191.088V29.6035C191.721 29.1074 192.375 28.8594 193.051 28.8594C193.773 28.8594 194.303 29.0742 194.639 29.5039C194.99 29.957 195.166 30.6875 195.166 31.6953V35H193.994V31.6953C193.994 30.7266 193.73 30.1484 193.203 29.9609C193.035 29.8984 192.846 29.8672 192.635 29.8672ZM197.182 33.9219C197.053 33.6992 196.949 33.4375 196.871 33.1367C196.797 32.8359 196.76 32.4434 196.76 31.959C196.76 31.4746 196.863 31.0293 197.07 30.623C197.281 30.2129 197.555 29.877 197.891 29.6152C198.543 29.1113 199.354 28.8594 200.322 28.8594C200.826 28.8594 201.207 28.8711 201.465 28.8945C201.465 28.8945 201.654 28.9141 202.033 28.9531V35H200.979L200.932 34.3027C200.697 34.6152 200.34 34.8477 199.859 35C199.676 35.0586 199.486 35.0879 199.291 35.0879C199.1 35.0879 198.91 35.0684 198.723 35.0293C198.535 34.9902 198.348 34.9258 198.16 34.8359C197.977 34.7461 197.801 34.627 197.633 34.4785C197.465 34.3262 197.314 34.1406 197.182 33.9219ZM200.861 29.8145C200.611 29.7832 200.361 29.7676 200.111 29.7676C199.865 29.7676 199.602 29.8125 199.32 29.9023C199.039 29.9883 198.799 30.125 198.6 30.3125C198.186 30.7031 197.979 31.2988 197.979 32.0996C197.979 32.8574 198.156 33.418 198.512 33.7812C198.781 34.0508 199.105 34.1855 199.484 34.1855C199.973 34.1855 200.375 34.0078 200.691 33.6523C200.77 33.5625 200.826 33.4824 200.861 33.4121V29.8145ZM203.082 28.9531H204.342L205.988 33.8574L207.641 28.9531H208.895L206.58 35H205.402L203.082 28.9531ZM212.721 35.0938C210.51 35.0938 209.404 34.0137 209.404 31.8535C209.404 30.9238 209.711 30.1797 210.324 29.6211C210.875 29.1133 211.504 28.8594 212.211 28.8594C212.98 28.8594 213.582 29.1172 214.016 29.6328C214.418 30.1133 214.619 30.7559 214.619 31.5605V32.0176H210.623C210.623 33.123 211.074 33.7988 211.977 34.0449C212.191 34.1035 212.521 34.1328 212.967 34.1328C213.416 34.1328 213.855 34.0723 214.285 33.9512V34.9414C213.855 35.043 213.334 35.0938 212.721 35.0938ZM213.447 31.1562C213.447 30.7812 213.344 30.4648 213.137 30.207C212.895 29.9102 212.561 29.7617 212.135 29.7617C211.686 29.7617 211.32 29.9043 211.039 30.1895C210.781 30.4551 210.652 30.7773 210.652 31.1562H213.447ZM220.174 33.9219C220.045 33.6992 219.941 33.4375 219.863 33.1367C219.789 32.8359 219.752 32.4434 219.752 31.959C219.752 31.4746 219.855 31.0293 220.062 30.623C220.273 30.2129 220.547 29.877 220.883 29.6152C221.535 29.1113 222.346 28.8594 223.314 28.8594C223.818 28.8594 224.199 28.8711 224.457 28.8945C224.457 28.8945 224.646 28.9141 225.025 28.9531V35H223.971L223.924 34.3027C223.689 34.6152 223.332 34.8477 222.852 35C222.668 35.0586 222.479 35.0879 222.283 35.0879C222.092 35.0879 221.902 35.0684 221.715 35.0293C221.527 34.9902 221.34 34.9258 221.152 34.8359C220.969 34.7461 220.793 34.627 220.625 34.4785C220.457 34.3262 220.307 34.1406 220.174 33.9219ZM223.854 29.8145C223.604 29.7832 223.354 29.7676 223.104 29.7676C222.857 29.7676 222.594 29.8125 222.312 29.9023C222.031 29.9883 221.791 30.125 221.592 30.3125C221.178 30.7031 220.971 31.2988 220.971 32.0996C220.971 32.8574 221.148 33.418 221.504 33.7812C221.773 34.0508 222.098 34.1855 222.477 34.1855C222.965 34.1855 223.367 34.0078 223.684 33.6523C223.762 33.5625 223.818 33.4824 223.854 33.4121V29.8145ZM232.262 27.1895C232.262 27.4121 232.188 27.584 232.039 27.7051C231.895 27.8223 231.713 27.8809 231.494 27.8809C231.275 27.8809 231.094 27.8223 230.949 27.7051C230.809 27.584 230.738 27.4121 230.738 27.1895C230.738 26.9629 230.809 26.791 230.949 26.6738C231.094 26.5566 231.275 26.498 231.494 26.498C231.713 26.498 231.895 26.5566 232.039 26.6738C232.188 26.791 232.262 26.9629 232.262 27.1895ZM230.902 28.9531H232.074V35.1172C232.074 36.1758 231.742 36.8809 231.078 37.2324C230.816 37.3691 230.479 37.4375 230.064 37.4375C229.998 37.4375 229.93 37.4336 229.859 37.4258L229.643 37.4023V36.5C229.748 36.5312 229.867 36.5469 230 36.5469C230.133 36.5469 230.258 36.5234 230.375 36.4766C230.496 36.4297 230.596 36.3516 230.674 36.2422C230.826 36.0234 230.902 35.6465 230.902 35.1113V28.9531ZM233.504 31.9648C233.504 31.0156 233.807 30.2461 234.412 29.6562C234.979 29.1055 235.68 28.8301 236.516 28.8301C237.336 28.8301 238.021 29.1055 238.572 29.6562C239.158 30.2422 239.451 31.0117 239.451 31.9648C239.451 32.9141 239.156 33.6797 238.566 34.2617C238.008 34.8164 237.322 35.0938 236.51 35.0938C235.686 35.0938 234.986 34.8164 234.412 34.2617C233.807 33.6797 233.504 32.9141 233.504 31.9648ZM234.723 31.9648C234.723 32.9648 235.043 33.6445 235.684 34.0039C235.91 34.1289 236.182 34.1914 236.498 34.1914C236.814 34.1914 237.082 34.1289 237.301 34.0039C237.52 33.875 237.699 33.707 237.84 33.5C238.102 33.1016 238.232 32.5898 238.232 31.9648C238.232 30.9727 237.918 30.293 237.289 29.9258C237.07 29.7969 236.809 29.7324 236.504 29.7324C236.199 29.7324 235.934 29.7969 235.707 29.9258C235.484 30.0508 235.301 30.2168 235.156 30.4238C234.867 30.8301 234.723 31.3438 234.723 31.9648ZM245.123 34.3262C244.787 34.5879 244.406 34.7812 243.98 34.9062C243.559 35.0273 243.102 35.0879 242.609 35.0879C242.121 35.0879 241.574 35.0586 240.969 35V26.2812H242.141V29.5566C242.398 29.2637 242.756 29.0547 243.213 28.9297C243.385 28.8828 243.561 28.8594 243.74 28.8594C243.924 28.8594 244.109 28.8789 244.297 28.918C244.484 28.9531 244.67 29.0156 244.854 29.1055C245.041 29.1953 245.219 29.3145 245.387 29.4629C245.555 29.6113 245.703 29.7969 245.832 30.0195C246.117 30.4961 246.26 31.0625 246.26 31.7188C246.26 32.3711 246.154 32.9023 245.943 33.3125C245.736 33.7227 245.463 34.0605 245.123 34.3262ZM242.146 34.1387C242.256 34.1699 242.471 34.1855 242.791 34.1855C243.111 34.1855 243.412 34.1406 243.693 34.0508C243.975 33.9609 244.215 33.8203 244.414 33.6289C244.832 33.2266 245.041 32.627 245.041 31.8301C245.041 30.8574 244.758 30.2207 244.191 29.9199C243.988 29.8145 243.781 29.7617 243.57 29.7617C243.359 29.7617 243.176 29.7891 243.02 29.8438C242.863 29.8984 242.727 29.9648 242.609 30.043C242.387 30.1953 242.232 30.3594 242.146 30.5352V34.1387ZM249.547 31.373C250.598 31.373 251.123 30.9219 251.123 30.0195C251.123 29.0625 250.574 28.4258 249.477 28.1094C249.031 27.9766 248.527 27.9062 247.965 27.8984V26.7969C249.355 26.7969 250.445 27.123 251.234 27.7754C251.941 28.3652 252.295 29.1133 252.295 30.0195C252.295 30.9453 251.898 31.6094 251.105 32.0117C250.801 32.168 250.416 32.2578 249.951 32.2812V33.002H248.955V31.3496C249.111 31.3652 249.309 31.373 249.547 31.373ZM248.686 34.4375C248.686 34.2109 248.758 34.0371 248.902 33.916C249.047 33.7949 249.23 33.7344 249.453 33.7344C249.676 33.7344 249.861 33.7949 250.01 33.916C250.158 34.0371 250.232 34.2109 250.232 34.4375C250.232 34.6641 250.158 34.8379 250.01 34.959C249.861 35.0801 249.676 35.1406 249.453 35.1406C249.23 35.1406 249.047 35.0801 248.902 34.959C248.758 34.8379 248.686 34.6641 248.686 34.4375ZM153.02 49.918C152.57 50.0352 151.977 50.0938 151.238 50.0938C150.504 50.0938 149.873 50.002 149.346 49.8184C148.822 49.6348 148.371 49.3633 147.992 49.0039C147.18 48.2461 146.773 47.1914 146.773 45.8398C146.773 44.957 146.984 44.1953 147.406 43.5547C147.977 42.6836 148.854 42.1289 150.037 41.8906C150.4 41.8203 150.846 41.7852 151.373 41.7852C151.9 41.7852 152.355 41.8105 152.738 41.8613V42.9863C152.402 42.9004 151.922 42.8574 151.297 42.8574C150.676 42.8574 150.166 42.9277 149.768 43.0684C149.369 43.209 149.039 43.4102 148.777 43.6719C148.254 44.1836 147.992 44.9062 147.992 45.8398C147.992 46.7891 148.25 47.5488 148.766 48.1191C149.328 48.7402 150.131 49.0508 151.174 49.0508C151.416 49.0508 151.641 49.041 151.848 49.0215V46.0156H153.02V49.918ZM156.277 42.1953C156.277 42.418 156.203 42.5898 156.055 42.7109C155.91 42.8281 155.729 42.8867 155.51 42.8867C155.291 42.8867 155.109 42.8281 154.965 42.7109C154.824 42.5898 154.754 42.418 154.754 42.1953C154.754 41.9688 154.824 41.7969 154.965 41.6797C155.109 41.5625 155.291 41.5039 155.51 41.5039C155.729 41.5039 155.91 41.5625 156.055 41.6797C156.203 41.7969 156.277 41.9688 156.277 42.1953ZM154.906 43.9531H156.078V50H154.906V43.9531ZM157.098 43.9531H158.357L160.004 48.8574L161.656 43.9531H162.91L160.596 50H159.418L157.098 43.9531ZM166.736 50.0938C164.525 50.0938 163.42 49.0137 163.42 46.8535C163.42 45.9238 163.727 45.1797 164.34 44.6211C164.891 44.1133 165.52 43.8594 166.227 43.8594C166.996 43.8594 167.598 44.1172 168.031 44.6328C168.434 45.1133 168.635 45.7559 168.635 46.5605V47.0176H164.639C164.639 48.123 165.09 48.7988 165.992 49.0449C166.207 49.1035 166.537 49.1328 166.982 49.1328C167.432 49.1328 167.871 49.0723 168.301 48.9512V49.9414C167.871 50.043 167.35 50.0938 166.736 50.0938ZM167.463 46.1562C167.463 45.7812 167.359 45.4648 167.152 45.207C166.91 44.9102 166.576 44.7617 166.15 44.7617C165.701 44.7617 165.336 44.9043 165.055 45.1895C164.797 45.4551 164.668 45.7773 164.668 46.1562H167.463ZM175.115 45.459L175.121 50H173.949V43.9531H175.027L175.109 44.6152C175.539 44.2559 176.039 44.0215 176.609 43.9121C176.793 43.877 176.973 43.8594 177.148 43.8594C177.879 43.8594 178.43 44.168 178.801 44.7852C179.48 44.168 180.191 43.8594 180.934 43.8594C181.668 43.8594 182.203 44.0801 182.539 44.5215C182.875 44.9707 183.043 45.7129 183.043 46.748V50H181.871V46.7891C181.871 45.7734 181.627 45.166 181.139 44.9668C180.975 44.9004 180.783 44.8672 180.564 44.8672C180.041 44.8672 179.561 45.0547 179.123 45.4297V50H177.951V46.7422C177.951 46.0469 177.848 45.5586 177.641 45.2773C177.441 45.0039 177.084 44.8672 176.568 44.8672C176.057 44.8672 175.572 45.0645 175.115 45.459ZM187.748 50.0938C185.537 50.0938 184.432 49.0137 184.432 46.8535C184.432 45.9238 184.738 45.1797 185.352 44.6211C185.902 44.1133 186.531 43.8594 187.238 43.8594C188.008 43.8594 188.609 44.1172 189.043 44.6328C189.445 45.1133 189.646 45.7559 189.646 46.5605V47.0176H185.65C185.65 48.123 186.102 48.7988 187.004 49.0449C187.219 49.1035 187.549 49.1328 187.994 49.1328C188.443 49.1328 188.883 49.0723 189.312 48.9512V49.9414C188.883 50.043 188.361 50.0938 187.748 50.0938ZM188.475 46.1562C188.475 45.7812 188.371 45.4648 188.164 45.207C187.922 44.9102 187.588 44.7617 187.162 44.7617C186.713 44.7617 186.348 44.9043 186.066 45.1895C185.809 45.4551 185.68 45.7773 185.68 46.1562H188.475ZM196.414 50.0938C195.926 50.0938 195.432 50.0586 194.932 49.9883V48.9512C195.439 49.0723 195.955 49.1328 196.479 49.1328C197.525 49.1328 198.049 48.9121 198.049 48.4707C198.049 48.3027 198.008 48.1777 197.926 48.0957C197.805 47.9668 197.613 47.8379 197.352 47.709L196.496 47.3164C195.941 47.0391 195.582 46.8164 195.418 46.6484C195.109 46.3359 194.955 45.9648 194.955 45.5352C194.955 45.0508 195.18 44.6562 195.629 44.3516C196.113 44.0234 196.793 43.8594 197.668 43.8594C198.109 43.8594 198.555 43.8906 199.004 43.9531V44.9551C198.512 44.8652 198.082 44.8203 197.715 44.8203C197.352 44.8203 197.068 44.8438 196.865 44.8906C196.666 44.9375 196.516 44.9961 196.414 45.0664C196.254 45.1758 196.174 45.3184 196.174 45.4941C196.174 45.666 196.229 45.8066 196.338 45.916C196.451 46.0215 196.627 46.1367 196.865 46.2617L197.727 46.6777C198.289 46.9707 198.65 47.1953 198.811 47.3516C199.115 47.6484 199.268 48.0215 199.268 48.4707C199.268 48.9512 199.025 49.3379 198.541 49.6309C198.033 49.9395 197.324 50.0938 196.414 50.0938ZM200.539 46.9648C200.539 46.0156 200.842 45.2461 201.447 44.6562C202.014 44.1055 202.715 43.8301 203.551 43.8301C204.371 43.8301 205.057 44.1055 205.607 44.6562C206.193 45.2422 206.486 46.0117 206.486 46.9648C206.486 47.9141 206.191 48.6797 205.602 49.2617C205.043 49.8164 204.357 50.0938 203.545 50.0938C202.721 50.0938 202.021 49.8164 201.447 49.2617C200.842 48.6797 200.539 47.9141 200.539 46.9648ZM201.758 46.9648C201.758 47.9648 202.078 48.6445 202.719 49.0039C202.945 49.1289 203.217 49.1914 203.533 49.1914C203.85 49.1914 204.117 49.1289 204.336 49.0039C204.555 48.875 204.734 48.707 204.875 48.5C205.137 48.1016 205.268 47.5898 205.268 46.9648C205.268 45.9727 204.953 45.293 204.324 44.9258C204.105 44.7969 203.844 44.7324 203.539 44.7324C203.234 44.7324 202.969 44.7969 202.742 44.9258C202.52 45.0508 202.336 45.2168 202.191 45.4238C201.902 45.8301 201.758 46.3438 201.758 46.9648ZM209.123 45.459L209.129 50H207.957V43.9531H209.035L209.117 44.6152C209.547 44.2559 210.047 44.0215 210.617 43.9121C210.801 43.877 210.98 43.8594 211.156 43.8594C211.887 43.8594 212.438 44.168 212.809 44.7852C213.488 44.168 214.199 43.8594 214.941 43.8594C215.676 43.8594 216.211 44.0801 216.547 44.5215C216.883 44.9707 217.051 45.7129 217.051 46.748V50H215.879V46.7891C215.879 45.7734 215.635 45.166 215.146 44.9668C214.982 44.9004 214.791 44.8672 214.572 44.8672C214.049 44.8672 213.568 45.0547 213.131 45.4297V50H211.959V46.7422C211.959 46.0469 211.855 45.5586 211.648 45.2773C211.449 45.0039 211.092 44.8672 210.576 44.8672C210.064 44.8672 209.58 45.0645 209.123 45.459ZM221.756 50.0938C219.545 50.0938 218.439 49.0137 218.439 46.8535C218.439 45.9238 218.746 45.1797 219.359 44.6211C219.91 44.1133 220.539 43.8594 221.246 43.8594C222.016 43.8594 222.617 44.1172 223.051 44.6328C223.453 45.1133 223.654 45.7559 223.654 46.5605V47.0176H219.658C219.658 48.123 220.109 48.7988 221.012 49.0449C221.227 49.1035 221.557 49.1328 222.002 49.1328C222.451 49.1328 222.891 49.0723 223.32 48.9512V49.9414C222.891 50.043 222.369 50.0938 221.756 50.0938ZM222.482 46.1562C222.482 45.7812 222.379 45.4648 222.172 45.207C221.93 44.9102 221.596 44.7617 221.17 44.7617C220.721 44.7617 220.355 44.9043 220.074 45.1895C219.816 45.4551 219.688 45.7773 219.688 46.1562H222.482ZM225.535 50.1465C225.301 50.1465 225.105 50.084 224.949 49.959C224.797 49.8301 224.721 49.6465 224.721 49.4082C224.721 49.166 224.797 48.9805 224.949 48.8516C225.105 48.7227 225.301 48.6582 225.535 48.6582C225.773 48.6582 225.971 48.7227 226.127 48.8516C226.283 48.9805 226.361 49.166 226.361 49.4082C226.361 49.6465 226.283 49.8301 226.127 49.959C225.971 50.084 225.773 50.1465 225.535 50.1465ZM228.535 50.1465C228.301 50.1465 228.105 50.084 227.949 49.959C227.797 49.8301 227.721 49.6465 227.721 49.4082C227.721 49.166 227.797 48.9805 227.949 48.8516C228.105 48.7227 228.301 48.6582 228.535 48.6582C228.773 48.6582 228.971 48.7227 229.127 48.8516C229.283 48.9805 229.361 49.166 229.361 49.4082C229.361 49.6465 229.283 49.8301 229.127 49.959C228.971 50.084 228.773 50.1465 228.535 50.1465ZM231.535 50.1465C231.301 50.1465 231.105 50.084 230.949 49.959C230.797 49.8301 230.721 49.6465 230.721 49.4082C230.721 49.166 230.797 48.9805 230.949 48.8516C231.105 48.7227 231.301 48.6582 231.535 48.6582C231.773 48.6582 231.971 48.7227 232.127 48.8516C232.283 48.9805 232.361 49.166 232.361 49.4082C232.361 49.6465 232.283 49.8301 232.127 49.959C231.971 50.084 231.773 50.1465 231.535 50.1465Z" fill="white"/>
</svg>
